<?xml version="1.0" encoding="utf-8"?>
<!-- Generator: Adobe Illustrator 26.3.1, SVG Export Plug-In . SVG Version: 6.00 Build 0)  -->
<svg version="1.1" id="Capa_1" xmlns="http://www.w3.org/2000/svg" xmlns:xlink="http://www.w3.org/1999/xlink" x="0px" y="0px"
	 viewBox="0 0 1080 1080" style="enable-background:new 0 0 1080 1080;" xml:space="preserve">
<style type="text/css">
	.st0{fill:#FF9900;}
</style>
<path d="M890.7,804.8c-4.3,0-8.7-0.1-13.1-0.4l-0.3,0c-15-1.1-28.2-2.7-39.3-4.7l-0.5-0.1c-3.6-0.7-6.3-1.4-8.5-2.1
	c-0.2,0-1-0.3-3.1-0.7l-1.7-0.3l-1.6-0.5c-3.3-1.1-6.8-2.1-10.3-2.9l-0.7-0.2l-0.7-0.2c-13.9-4.1-27.5-10.2-40.3-18.2l-22.4-13.8
	l17.6-39.3l9.6-21.4l18.1-39.4c-0.8-0.8-1.6-1.5-2.3-2.3c-2.3-2.3-4.6-4.8-6.6-7.5c-13.5-16.4-20.4-35.3-20.4-56.2
	c0-24.1,8.2-45.8,24.4-64.7c14.5-16.9,33.4-30.2,56.1-39.5c21.8-8.9,45-13.4,68.9-13.4c19.1,0,37.2,2.7,53.8,8.2
	c16.5,5.4,32.6,13.7,47.6,24.7l19.7,14.3l-14.6,32.7l-6,13.8l-7.2,16.4l-5.6,13l-10.5,23.3c1.6,1.5,3.2,3,4.6,4.4
	c1.7,1.8,3.3,3.5,4.8,5.2l0.3,0.4c13.7,16.1,20.4,35.3,20,56.8c-0.4,26.6-7.7,49.4-21.6,67.6c-13.6,17.8-31.7,30.7-53.7,38.4
	C928.5,801.9,910.2,804.8,890.7,804.8C890.7,804.8,890.7,804.8,890.7,804.8z"/>
<path d="M577.7,799.4l3.8-108.8l-22.6-41.1c-1.6-3-2.8-5.3-3.7-7c0,0-0.5-0.9-1.7-2.9l-0.3-0.6l-0.3-0.6c-1.4-2.6-2.5-4.6-3.3-6
	c-0.7-1.3-1.8-3.2-3.2-5.8l-74.2-133.2h111.4l33.5-2.5l20.7,35.6l22.3-39h169.4L712,691.9l0.6,7.7c0.3,2.6,0.5,4.6,0.6,6l0.7,6.9
	c0.3,3,0.5,5.1,0.6,6.5l0,0.1c0.1,1.5,0.4,3.8,0.7,7.1l6.2,73.2H577.7z"/>
<path d="M418,804.1c-28.9,0-55.3-7-78.7-20.9c-23.5-14-42.1-33.7-55.1-58.7c-12.7-24.3-19.1-52-19.1-82.4c0-12.3,1.7-25.7,5.1-39.7
	c0.8-3.4,1.9-6.8,3.1-10.3c1-2.6,1.9-5.2,2.9-7.6c1.3-3.3,2.8-6.7,4.3-10c1.5-3.3,3.2-6.5,4.9-9.6c13.4-25.1,31.9-45.8,55-61.6
	c24.2-16.5,50.2-24.9,77.5-24.9c36.6,0,67.9,11.3,93,33.5l0.6,0.5l7.2,7l5.5,6l6.3,7.8c2.4,2.8,4.5,5.9,6.2,9.1l2.5,4.5
	c15.1,26.7,22.7,58.4,22.7,94.3c0,16.5-2.1,32.5-6.3,47.3l-0.3,1.2l-0.4,1.1c-0.2,0.6-0.4,1.3-0.6,2c-0.4,1.7-0.9,3.3-1.4,4.9
	c-0.6,2-1.4,4-2.3,6.1l-2.4,6.1c-0.6,1.5-1.4,3.6-2.6,6.5l-0.4,1l-0.5,1c-12.2,25.2-29.5,45.8-51.3,61.3
	C470.5,795.9,445.2,804.1,418,804.1z M423.6,663.2c0.1,0,0.3,0,0.5,0c0.2,0,0.5,0,0.7,0l0.6,0c2.3-0.1,3.1-0.5,3.2-0.5
	c0,0,0.2-0.2,0.4-0.6c2.5-4.1,3.5-9.6,2.9-17c-0.7-8.3-3.6-12.2-5.7-14.4c-2.4-2.6-3.6-2.6-4.6-2.6c-0.1,0-0.3,0-0.4,0
	c-2.4,0.1-4.1,0.7-6.4,3.4c-1,1.2-3.2,3.8-2.6,11.1l0,0.2c0.4,5.2,1.8,9.7,4.3,13.7c0.4,0.6,0.8,1.1,1.2,1.5l0.1,0.1
	c0.8,0.9,1.6,1.9,2.5,2.8c0.2,0.1,0.5,0.4,0.9,0.6l1.5,1L423.6,663.2z"/>
<path d="M109.1,804.5l3.2-69.6l0-0.6c0.3-3.7,0.3-4.9,0.3-5c0-2.5,0.2-5.6,0.5-10l0-0.1c0.3-3.2,0.3-4.3,0.3-4.4
	c0-2.4,0.2-5.3,0.5-9.2l4-78.3h-63l-2-50.3l-0.4-13.5L51.6,547l-0.9-18.4l-1.4-44.9h262.9v123.2l-62.1-1.6l0.2,11.7v0.3
	c0,2.7,0.1,3.7,0.1,3.9l0,0c0.2,2.5,0.4,5.5,0.4,9.4c0,3.5,0.1,4.6,0.1,4.7c0.2,2.5,0.3,5.5,0.3,9.5l3.2,159.5H109.1z"/>
<path d="M866.6,503.7l-3.4-121.9v-0.4c0-3.1-0.1-6.1-0.3-9.1l-0.1-1.1V370c0-3.1-0.1-6.4-0.4-9.6l0-0.7L857.7,186h150l-2,54.7
	l-0.4,12.5l-0.4,13.5L999.3,413c0,3.9-0.1,6.8-0.4,9.2l0,0c0,0.2-0.1,1.1-0.1,3.5c0,3.7-0.2,7.6-0.5,11.4l-3,66.5H866.6z"/>
<path d="M335.4,504.9l46.5-216.6l0.6-1.5c0.1-0.3,0.3-1.1,0.6-2.6l0.1-0.4l0.1-0.4c0.3-1.2,0.5-2.4,0.8-3.5l0.5-2.5l0.5-1.5
	c0.1-0.3,0.3-1.1,0.6-2.6l0.1-0.5l1-4.4l17.5-81.8h187l1,5.1H679l65.2-1.2l4.9,15.9l13.2-21h155.9L812.9,346.1l30.9,58.4
	c1.8,3.2,3.6,6.5,5.2,9.8c1.5,2.5,2.6,4.6,3.5,6.7c0.1,0.1,0.2,0.4,0.4,0.6l0.6,0.9l43.2,81.5H716.8l-2.4-7.8l-3.7,7.8h-59.3
	l0.1,0.8H335.4z M627.6,378.9c0.6-1,1.3-2.3,2.2-3.7c2.6-4.5,5.3-8.9,7.9-13.2l10.2-17.4l-39-64.9L627.6,378.9z"/>
<path d="M56.6,504.5l5-67.4c0.3-3.7,0.3-4.9,0.3-5c0-2.5,0.2-5.5,0.5-9.4c0.3-4.1,0.5-7.2,0.6-9.1c0.1-1.9,0.3-4.8,0.6-8.7
	l14.4-211.7h35.4l13.9-0.4l16.7-0.4h14.6l43-2.4l24.5,68.2l29.8-71.4h115.1l4.9,96v0.8c0,1.4,0,2.2,0,2.4c0.2,2,0.4,4.4,0.4,7.2
	c0.3,3.6,0.4,6.1,0.4,8.3v0c0,0,0,1.1,0.3,4.1l0.1,0.6l9.7,198.3H56.6z"/>
<g>
	<g>
		<path class="st0" d="M112.1,474.5h10.7h15h24.5l-3.9-99.8h6.4l16.3,40.8c0.6,1.6,1,2.7,1.3,3.3c0.3,0.7,0.7,1.8,1.3,3.3
			c0.9,1.6,1.9,4.2,3,7.9l18,44.4h8.6h9h14.2l40.4-90.7h3l-4.3,90.7h22.8h13.3h14.6h12h16.8l-8.2-166.1c-0.3-3.1-0.4-5.4-0.4-6.9
			c0-1.4-0.1-3.7-0.4-6.9c0-2.4-0.1-4.1-0.2-5.3c-0.1-1.2-0.2-3.1-0.2-5.7l-3.4-66.8h-7.7h-9.5h-11.6h-16.3h-21.5l-48.1,115.5h-6.9
			l-40-111.2l-21.5,1.2h-15l-16.3,0.4l-14.2,0.4h-7.7L93.6,406.9c-0.3,3.9-0.5,6.9-0.6,8.8c-0.1,2-0.4,5-0.6,9.2
			c-0.3,3.1-0.4,5.5-0.4,7.1c0,1.6-0.1,4.1-0.4,7.5l-2.6,35h9H112.1z M892.8,370c0.3,3.7,0.4,7.5,0.4,11.4l2.6,92.3h12h12.5h17.2
			h13.7h15.5l1.7-38.5c0.3-3.1,0.4-6.3,0.4-9.4c0-2.9,0.1-5,0.2-6.5c0.1-1.4,0.2-3.7,0.2-6.9l5.6-146.9l0.4-13.4l0.4-12.6l0.9-23.6
			H965h-14.6h-12.5h-16.3h-13.3h-11.2h-8.6l3.9,142.2C892.7,362.1,892.8,366.1,892.8,370z M148.4,513.7c-1.6,0-4.1,0-7.5,0
			c-3.2,0-5.5,0-7.1,0c-1.6,0-3.9,0-7.1,0H80.3l0.4,13.7l0.9,18.1l0.9,16.9l0.4,13.7l0.9,21.2h65.7l-5.6,110.4
			c-0.3,3.1-0.4,5.5-0.4,7.1c0,1.6-0.1,3.9-0.4,7.1c-0.3,3.4-0.4,5.9-0.4,7.5c0,1.6-0.1,4.1-0.4,7.5l-1.7,37.7h12.9h15h16.8h18.9
			h19.8l-2.6-129.2c0-3.1-0.1-5.5-0.2-7.1c-0.1-1.6-0.2-4.1-0.2-7.5c0-2.9-0.1-5-0.2-6.5c-0.1-1.4-0.2-3.7-0.2-6.9l-0.9-42.8
			l62.7,1.6v-13.4v-14.5v-13.4v-11.4v-9.8H155.5C152.3,513.7,150,513.7,148.4,513.7z M903.8,592.4c3.9-1.7,8.7-2.6,14.4-2.6
			c6.6,0,14.5,1.2,23.8,3.5c9.3,2.4,16.5,5,21.7,7.9l3,2l6.9-15.3l5.6-13l7.3-16.5l6-13.7l4.7-10.6c-12.6-9.2-25.7-16-39.3-20.4
			c-13.6-4.4-28.4-6.7-44.5-6.7c-20.1,0-39.2,3.7-57.6,11.2c-18.3,7.5-33.2,17.9-44.7,31.2c-11.5,13.4-17.2,28.4-17.2,45.2
			c0,13.9,4.6,26.3,13.7,37.3c1.4,1.8,2.9,3.5,4.5,5.1c1.6,1.6,3.2,3.1,4.9,4.7c1.4,1.3,2.9,2.6,4.5,3.9c1.6,1.3,3.2,2.5,4.9,3.5
			c6.6,4.7,13.2,8.3,20,10.8c6.7,2.5,15.1,5,25.1,7.7c11.2,2.6,19.1,5.4,23.8,8.2c4.7,2.9,7.1,7.9,7.1,14.9c0,6.3-2.7,11.5-8.2,15.7
			c-5.4,4.2-13,5.6-22.8,4.3c-8.9-1.3-18.9-4.3-30.1-9c-11.2-4.7-19.9-8.9-26.2-12.6l-1.7-1.2l-5.6,12.2l-5.6,12.2l-4.7,10.6
			l-4.7,10.6l-6.9,15.3c10.6,6.5,21.6,11.5,33.1,14.9c4.3,1,8.4,2.2,12.5,3.5c2.6,0.5,4.5,1,5.8,1.4c1.3,0.4,3.2,0.9,5.8,1.4
			c10,1.8,22.1,3.3,36.1,4.3c20.6,1.3,39.2-0.9,55.6-6.7c16.5-5.8,29.7-15.2,39.7-28.3c10-13.1,15.2-29.7,15.5-49.9
			c0.3-14.1-4-26.4-12.9-36.9c-1.1-1.3-2.4-2.6-3.7-3.9c-1.3-1.3-2.7-2.6-4.1-3.9c-1.7-1.6-3.4-3-5.2-4.3c-1.7-1.3-3.6-2.5-5.6-3.5
			c-4.9-3.1-10.5-6.2-16.8-9.2c-6.3-3-12.3-5.7-18-8.1c-8.3-3.1-14.5-6-18.7-8.4c-4.2-2.5-6.4-5-6.7-7.7
			C898.2,597.8,899.9,594.1,903.8,592.4z M815.5,474.1h15.9h15.5l-19.3-36.5c-1.1-1.8-1.9-3.3-2.4-4.3c-0.4-1-1.2-2.5-2.4-4.3
			l-0.4-0.8c-1.4-3.1-3-6.1-4.7-9l-39.5-74.6l84.6-129.2h-18.5h-15h-15h-16.3h-18.9l-16.3,25.9c-1.7,2.6-3.6,5.4-5.6,8.2
			c-1.1,1.8-2.1,3.3-2.8,4.3c-0.7,1-1.7,2.5-2.8,4.3l-12,18.1l-17.2-55.4l-43,0.8h-16.3H647h-13.3h-24.9l73.9,122.9l-19.3,33
			c-2.6,4.2-5.2,8.5-7.7,13c-1.7,2.9-2.9,5-3.7,6.3c-0.7,1.3-1.9,3.4-3.7,6.3L613,463.2l-8.5-44.9c-0.6-3.1-1.1-6.3-1.7-9.4
			c-0.3-1.6-0.6-3-0.9-4.3c0-1.3-0.3-2.7-0.9-4.3l-34.8-183.8h-25.4h-14.2h-24.9h-15h-19.3h-17.6h-21.5l-12.5,58.1
			c-0.3,1.3-0.6,2.6-0.9,3.9c-0.6,3.1-1.1,5.5-1.7,7.1c-0.3,1.3-0.6,2.6-0.9,3.9c-0.6,3.1-1.1,5.5-1.7,7.1l-38.2,178.3h13.3h23.6
			h15.9h24.5h22.8l4.7-42.4h30.9l5.2,42.4h26.2h16.8h19.3h16.8h22.8l-0.1-0.8h8.3h18.5h18h14.6h17.2l28.8-60.5l18.5,60.5h45.1h17.2
			H815.5z M461.9,362.1l13.7-72.7h34.8l13.3,72.7H461.9z M751.9,517.6h-19.3h-15.5h-17.2h-22.3l-14.6,25.5c-1.7,2.9-3.4,5.9-5.2,9
			c-1.1,2.1-2.1,3.7-2.8,4.7c-0.7,1-1.7,2.6-2.8,4.7L638,586.7l-37.4-64.4l-15.9,1.2h-16.3h-15h-16.8h-13.3l49.4,88.8
			c1.4,2.6,2.5,4.6,3.2,5.9c0.7,1.3,1.8,3.3,3.2,5.9c1.4,2.4,2.4,4.1,3,5.3c0.6,1.2,1.6,3.1,3,5.7l26.6,48.3l-3,86h16.3h13.7h15.5
			H669h19.8l-3.4-40.5c-0.3-3.1-0.5-5.4-0.6-6.9c-0.1-1.4-0.4-3.7-0.6-6.9c-0.3-2.9-0.5-5-0.6-6.5c-0.1-1.4-0.4-3.6-0.6-6.5
			l-1.3-17.3l96.2-167.3H751.9z M510.4,556.9c-0.9-1.6-1.9-3-3-4.3l-6-7.5l-4.3-4.7l-6-5.9c-19.5-17.3-43.8-25.9-73-25.9
			c-21.2,0-41.4,6.5-60.6,19.6c-19.2,13.1-34.4,30.1-45.5,51.1c-1.4,2.6-2.8,5.3-4.1,8.1s-2.5,5.6-3.7,8.4c-0.9,2.1-1.7,4.3-2.6,6.7
			s-1.6,4.7-2.1,7.1c-2.9,11.8-4.3,22.7-4.3,32.6c0,25.7,5.2,48.5,15.7,68.5c10.5,20,25.1,35.6,43.8,46.7
			c18.8,11.1,39.9,16.7,63.4,16.7c20.9,0,40.2-6.3,58-18.9c17.8-12.6,31.6-29.2,41.7-49.9c1.1-2.9,2-5,2.6-6.5
			c0.6-1.4,1.4-3.6,2.6-6.5c0.6-1.3,1.1-2.6,1.5-3.9c0.4-1.3,0.8-2.6,1.1-3.9c0.3-0.8,0.5-1.4,0.6-2c0.1-0.5,0.4-1.2,0.6-2
			c3.4-12.3,5.2-25.4,5.2-39.3c0-30.9-6.3-57.5-18.9-79.7C512.1,560,511.3,558.4,510.4,556.9z M454.6,677.8
			c-6,9.7-15.3,14.8-27.9,15.3c-8.6,0.5-15.8-1.6-21.5-6.3c-2.9-1.8-5-3.5-6.4-5.1c-1.1-1.3-2.3-2.6-3.4-3.9
			c-1.1-1.3-2.3-2.7-3.4-4.3c-5.4-8.4-8.6-17.8-9.5-28.3c-1.1-13.1,2-24.1,9.5-33c7.4-8.9,16.8-13.6,27.9-14.1
			c10.9-0.5,20.3,3.5,28.4,12c8,8.5,12.6,19.3,13.7,32.4C463,656.4,460.6,668.2,454.6,677.8z"/>
	</g>
</g>
</svg>
